<svg data-v-423bf9ae="" xmlns="http://www.w3.org/2000/svg" viewBox="0 0 319 103" class="iconLeft"><!----><!----><!----><g data-v-423bf9ae="" id="5513d887-757b-4baa-a47e-5940fa391a3b" fill="black" transform="matrix(4.691164970397949,0,0,4.691164970397949,119.91368103027344,4.171070098876953)"><path d="M10.00 13.22L9.53 13.17L5.75 3.91L5.04 3.91L1.25 13.17L0.80 13.22C0.62 13.23 0.53 13.33 0.53 13.50L0.53 13.82L0.98 13.82L1.27 13.82L1.53 13.82L1.62 13.82L2.94 13.82L2.94 13.50C2.94 13.31 2.83 13.23 2.62 13.22C2.60 13.22 2.58 13.20 2.53 13.20C2.49 13.20 2.44 13.19 2.34 13.19C2.24 13.19 2.11 13.19 1.97 13.17L2.95 10.75L3.02 10.57L7.76 10.57L7.83 10.75L8.81 13.17C8.67 13.19 8.55 13.19 8.46 13.19C8.36 13.19 8.29 13.20 8.25 13.20C8.20 13.20 8.18 13.22 8.16 13.22C7.95 13.23 7.84 13.31 7.84 13.50L7.84 13.82L9.16 13.82L9.25 13.82L9.52 13.82L9.80 13.82L10.26 13.82L10.26 13.50C10.26 13.33 10.18 13.23 10.00 13.22ZM5.19 5.22C5.22 5.14 5.26 5.04 5.29 4.94C5.32 4.84 5.36 4.75 5.39 4.63C5.42 4.75 5.46 4.84 5.49 4.94C5.52 5.04 5.56 5.12 5.59 5.21L7.55 10.04L3.25 10.04ZM14.13 6.73C13.75 6.73 13.41 6.79 13.10 6.90C12.80 7.01 12.54 7.15 12.32 7.35C12.10 7.55 11.93 7.77 11.82 8.05C11.70 8.33 11.63 8.64 11.63 8.97C11.63 9.39 11.73 9.76 11.91 10.08C12.10 10.40 12.35 10.65 12.68 10.85C12.54 10.92 12.43 11.00 12.32 11.10C12.21 11.20 12.12 11.28 12.05 11.40C11.98 11.51 11.93 11.61 11.89 11.72C11.84 11.83 11.83 11.93 11.83 12.03C11.83 12.29 11.89 12.49 12.03 12.64C12.17 12.80 12.35 12.89 12.59 12.98C12.17 13.12 11.82 13.33 11.58 13.59C11.34 13.86 11.21 14.18 11.21 14.55C11.21 14.80 11.28 15.05 11.41 15.27C11.54 15.50 11.72 15.69 11.97 15.86C12.22 16.03 12.53 16.17 12.89 16.27C13.26 16.37 13.69 16.42 14.18 16.42C14.66 16.42 15.11 16.35 15.50 16.23C15.89 16.10 16.20 15.95 16.48 15.74C16.76 15.53 16.97 15.29 17.11 15.02C17.25 14.76 17.32 14.49 17.32 14.20C17.32 13.89 17.26 13.64 17.12 13.44C16.98 13.24 16.79 13.12 16.56 13.01C16.34 12.89 16.06 12.82 15.76 12.78C15.47 12.74 15.18 12.71 14.87 12.70C14.56 12.68 14.25 12.66 13.96 12.64C13.66 12.63 13.40 12.61 13.17 12.56C12.95 12.50 12.75 12.43 12.61 12.32C12.47 12.21 12.40 12.05 12.40 11.86C12.40 11.72 12.46 11.56 12.57 11.41C12.68 11.26 12.84 11.13 13.03 11.02C13.36 11.14 13.72 11.19 14.13 11.19C14.49 11.19 14.83 11.14 15.13 11.03C15.44 10.92 15.69 10.78 15.92 10.58C16.14 10.39 16.30 10.16 16.42 9.88C16.55 9.60 16.60 9.31 16.60 8.97C16.60 8.72 16.58 8.48 16.51 8.26C16.44 8.04 16.32 7.84 16.20 7.66L17.26 7.57C17.39 7.56 17.46 7.50 17.46 7.39L17.46 7.15L15.67 7.15C15.46 7.01 15.22 6.92 14.97 6.85C14.71 6.78 14.43 6.73 14.13 6.73ZM16.72 14.29C16.72 14.53 16.65 14.74 16.52 14.94C16.39 15.13 16.21 15.33 15.99 15.47C15.76 15.61 15.50 15.72 15.19 15.81C14.88 15.89 14.55 15.92 14.20 15.92C13.82 15.92 13.48 15.88 13.19 15.81C12.89 15.74 12.63 15.62 12.43 15.50C12.24 15.37 12.08 15.22 11.97 15.05C11.86 14.88 11.82 14.69 11.82 14.48C11.82 14.31 11.86 14.17 11.91 14.03C11.97 13.89 12.05 13.76 12.17 13.65C12.28 13.54 12.39 13.43 12.54 13.34C12.70 13.26 12.87 13.17 13.05 13.10C13.29 13.15 13.54 13.17 13.82 13.19C14.10 13.20 14.35 13.22 14.63 13.23C14.91 13.24 15.16 13.26 15.41 13.29C15.67 13.31 15.89 13.38 16.09 13.45C16.28 13.52 16.42 13.62 16.53 13.76C16.65 13.90 16.72 14.07 16.72 14.29ZM14.13 10.74C13.83 10.74 13.58 10.70 13.34 10.61C13.10 10.53 12.91 10.40 12.74 10.25C12.57 10.09 12.46 9.91 12.38 9.70C12.29 9.49 12.25 9.25 12.25 8.99C12.25 8.72 12.29 8.48 12.38 8.26C12.46 8.04 12.57 7.87 12.74 7.71C12.91 7.56 13.10 7.43 13.34 7.35C13.58 7.27 13.83 7.22 14.13 7.22C14.42 7.22 14.69 7.27 14.91 7.35C15.13 7.43 15.33 7.56 15.50 7.71C15.67 7.87 15.79 8.04 15.88 8.26C15.96 8.48 16.00 8.71 16.00 8.97C16.00 9.24 15.96 9.49 15.88 9.70C15.79 9.91 15.67 10.09 15.51 10.25C15.36 10.40 15.16 10.53 14.92 10.61C14.69 10.70 14.42 10.74 14.13 10.74ZM19.63 4.89C19.68 4.94 19.75 4.98 19.82 5.01C19.89 5.04 19.98 5.07 20.06 5.07C20.15 5.07 20.23 5.04 20.30 5.01C20.37 4.98 20.44 4.94 20.50 4.89C20.55 4.83 20.61 4.76 20.64 4.69C20.66 4.62 20.69 4.54 20.69 4.45C20.69 4.37 20.66 4.30 20.64 4.21C20.61 4.14 20.55 4.07 20.50 4.02C20.44 3.96 20.37 3.91 20.30 3.88C20.23 3.85 20.15 3.84 20.06 3.84C19.98 3.84 19.89 3.85 19.82 3.88C19.75 3.91 19.68 3.96 19.63 4.02C19.57 4.07 19.53 4.14 19.50 4.21C19.47 4.28 19.45 4.37 19.45 4.45C19.45 4.54 19.47 4.62 19.50 4.69C19.53 4.76 19.57 4.83 19.63 4.89ZM21.13 13.29L21.06 13.29L20.94 13.29C20.90 13.29 20.83 13.27 20.73 13.27C20.64 13.27 20.52 13.26 20.40 13.26L20.40 6.85L19.73 6.85L18.72 6.85L18.72 7.13C18.72 7.28 18.82 7.36 19.00 7.38L19.07 7.38C19.10 7.38 19.14 7.39 19.18 7.39L19.39 7.39C19.49 7.39 19.60 7.41 19.73 7.41L19.73 13.26C19.57 13.26 19.43 13.29 19.32 13.29L19.08 13.29L19.00 13.29C18.82 13.30 18.72 13.38 18.72 13.54L18.72 13.82L19.73 13.82L20.40 13.82L21.41 13.82L21.41 13.54C21.41 13.38 21.31 13.30 21.13 13.29ZM25.06 13.29L24.99 13.29L24.88 13.29C24.84 13.29 24.77 13.27 24.67 13.27C24.57 13.27 24.46 13.26 24.33 13.26L24.33 3.63L23.66 3.63L22.65 3.63L22.65 3.91C22.65 4.06 22.75 4.14 22.93 4.16L23.00 4.16C23.03 4.16 23.07 4.17 23.11 4.17L23.32 4.17C23.42 4.17 23.53 4.19 23.66 4.19L23.66 13.26C23.51 13.26 23.37 13.29 23.25 13.29L23.02 13.29L22.93 13.29C22.75 13.30 22.65 13.38 22.65 13.54L22.65 13.82L23.66 13.82L24.33 13.82L25.34 13.82L25.34 13.54C25.34 13.38 25.24 13.30 25.06 13.29ZM27.48 4.89C27.54 4.94 27.61 4.98 27.68 5.01C27.75 5.04 27.83 5.07 27.92 5.07C28 5.07 28.08 5.04 28.15 5.01C28.22 4.98 28.29 4.94 28.35 4.89C28.41 4.83 28.46 4.76 28.49 4.69C28.52 4.62 28.55 4.54 28.55 4.45C28.55 4.37 28.52 4.30 28.49 4.21C28.46 4.14 28.41 4.07 28.35 4.02C28.29 3.96 28.22 3.91 28.15 3.88C28.08 3.85 28 3.84 27.92 3.84C27.83 3.84 27.75 3.85 27.68 3.88C27.61 3.91 27.54 3.96 27.48 4.02C27.43 4.07 27.38 4.14 27.36 4.21C27.33 4.28 27.30 4.37 27.30 4.45C27.30 4.54 27.33 4.62 27.36 4.69C27.38 4.76 27.43 4.83 27.48 4.89ZM28.98 13.29L28.91 13.29L28.80 13.29C28.76 13.29 28.69 13.27 28.59 13.27C28.49 13.27 28.38 13.26 28.25 13.26L28.25 6.85L27.58 6.85L26.57 6.85L26.57 7.13C26.57 7.28 26.67 7.36 26.85 7.38L26.92 7.38C26.95 7.38 26.99 7.39 27.03 7.39L27.24 7.39C27.34 7.39 27.45 7.41 27.58 7.41L27.58 13.26C27.43 13.26 27.29 13.29 27.17 13.29L26.94 13.29L26.85 13.29C26.67 13.30 26.57 13.38 26.57 13.54L26.57 13.82L27.58 13.82L28.25 13.82L29.26 13.82L29.26 13.54C29.26 13.38 29.16 13.30 28.98 13.29ZM32.73 13.93C33.03 13.93 33.31 13.86 33.59 13.75C33.85 13.64 34.08 13.48 34.26 13.29L34.08 12.98C34.03 12.94 34.01 12.92 33.96 12.92C33.94 12.92 33.88 12.94 33.82 12.99C33.77 13.05 33.70 13.09 33.61 13.15C33.53 13.20 33.42 13.26 33.29 13.31C33.17 13.37 33.04 13.38 32.87 13.38C32.73 13.38 32.59 13.36 32.48 13.31C32.37 13.27 32.27 13.20 32.19 13.12C32.10 13.03 32.03 12.92 31.98 12.78C31.92 12.64 31.91 12.49 31.91 12.29L31.91 7.57L34.10 7.57L34.10 7.07L31.91 7.07L31.91 4.41L31.58 4.41C31.53 4.41 31.50 4.44 31.47 4.47C31.44 4.49 31.42 4.54 31.42 4.58L31.25 7.07L30.06 7.15L30.06 7.41C30.06 7.46 30.07 7.49 30.10 7.52C30.13 7.55 30.18 7.57 30.24 7.57L31.23 7.57L31.23 12.33C31.23 12.88 31.36 13.27 31.63 13.54C31.89 13.80 32.26 13.93 32.73 13.93ZM41.83 6.86L41.31 6.86L39.91 6.86L39.91 7.13C39.91 7.28 40.01 7.36 40.19 7.38L40.26 7.38C40.29 7.38 40.32 7.39 40.36 7.39L40.57 7.39C40.67 7.39 40.78 7.41 40.91 7.41L38.77 12.45L38.68 12.66C38.65 12.73 38.64 12.80 38.61 12.87C38.60 12.80 38.56 12.73 38.54 12.66C38.51 12.59 38.50 12.52 38.47 12.45L36.30 7.41C36.46 7.41 36.60 7.39 36.71 7.39C36.82 7.39 36.90 7.38 36.93 7.38L37.02 7.38C37.20 7.36 37.30 7.28 37.30 7.13L37.30 6.86L35.88 6.86L35.88 6.86L35.32 6.86L34.86 6.86L34.86 7.13C34.86 7.28 34.96 7.36 35.14 7.38C35.14 7.38 35.28 7.38 35.56 7.39L38.28 13.57L37.04 16.28L37.52 16.28C37.60 16.28 37.67 16.25 37.72 16.21C37.76 16.17 37.80 16.13 37.83 16.06L41.59 7.39L41.85 7.39C41.93 7.39 41.97 7.38 42 7.38L42.07 7.38C42.25 7.36 42.35 7.28 42.35 7.13L42.35 6.86Z"></path></g><!----><g data-v-423bf9ae="" id="3099b9f2-964f-4599-a5ce-dfa1a998ed08" transform="matrix(1.0666667222976685,0,0,1.0666667222976685,0.7999973297119141,0.7999973297119141)" stroke="none" fill="black"><style></style><path d="M18 0C8.059 0 0 8.059 0 18v60c0 9.941 8.059 18 18 18h60c9.941 0 18-8.059 18-18V18c0-9.941-8.059-18-18-18H18zm29.994 22a.5.5 0 0 1 .5.5.5.5 0 0 1-.5.5.5.5 0 0 1-.5-.5.5.5 0 0 1 .5-.5zm-12.988.059c.726 0 1.359.393 1.709.974 1.733-.088 3.927.493 6.488 1.774.02.01.034.025.05.037A13.907 13.907 0 0 1 47.995 24c1.663 0 3.252.308 4.733.842 4.269-2.147 7.695-2.41 9.408-.697 1.582 1.582 1.493 4.546-.207 8.363 3.874 1.487 6.066 3.551 6.066 5.78 0 .541-.142 1.066-.394 1.575.25.335.406.746.406 1.196 0 1.103-.897 2-2 2-.45 0-.861-.156-1.195-.407-.822.513-1.785.986-2.872 1.407 1.69 3.79 1.778 6.79.198 8.37-.765.766-1.853 1.13-3.172 1.13-1.414 0-3.1-.427-4.94-1.215a10.037 10.037 0 0 0-1.03 4.418V60c1.102 0 2 .897 2 2s-.898 2-2 2v2.498c0 .032-.012.06-.018.09a.49.49 0 0 1-.065.33l-4.5 6.855a.5.5 0 0 1-.838.002l-4.5-6.857a.484.484 0 0 1-.062-.328c-.006-.03-.02-.059-.02-.09V64c-1.103 0-2-.897-2-2s.897-2 2-2v-3.238a10.03 10.03 0 0 0-1.035-4.426c-1.877.807-3.55 1.228-4.934 1.228-.23 0-.45-.016-.662-.043a1.988 1.988 0 0 1-1.355.538c-1.103 0-2-.897-2-2 0-.262.054-.51.146-.74-.753-1.694-.453-4.212.899-7.255-3.748-1.446-6.057-3.482-6.057-5.777 0-2.225 2.187-4.287 6.053-5.773-.235-.53-.444-1.05-.621-1.559-.883-2.536-.931-4.563-.178-5.96a1.975 1.975 0 0 1-.242-.936c0-1.103.897-2 2-2zm16.023.236a.5.5 0 0 1 .086.01.5.5 0 0 1 .393.588.5.5 0 0 1-.588.392.5.5 0 0 1-.393-.588.5.5 0 0 1 .502-.402zm-6.056.002a.5.5 0 0 1 .488.402.5.5 0 0 1-.393.588.5.5 0 0 1-.588-.392.5.5 0 0 1 .393-.588.5.5 0 0 1 .1-.01zm-9.967.762a1.001 1.001 0 0 0 0 2 1.001 1.001 0 0 0 0-2zm18.931.12a.5.5 0 0 1 .18.038.5.5 0 0 1 .272.654.5.5 0 0 1-.655.27.5.5 0 0 1-.27-.653.5.5 0 0 1 .474-.308zm-11.873.003a.5.5 0 0 1 .46.308.5.5 0 0 1-.272.653.5.5 0 0 1-.652-.27.5.5 0 0 1 .27-.654.5.5 0 0 1 .194-.037zm-5.062.841c.001.012.004.024.004.036 0 1.103-.897 2-2 2-.376 0-.725-.11-1.026-.291-.446 1.147-.319 2.82.391 4.857.175.503.385 1.02.621 1.547.114-.038.228-.076.344-.113a14.06 14.06 0 0 1 6.69-6.705c-1.966-.901-3.672-1.343-5.024-1.33zm21.51.018c-1.277.09-2.823.535-4.54 1.318a14.059 14.059 0 0 1 6.68 6.7c.113.036.223.074.334.11 1.527-3.4 1.704-6.057.444-7.317-.635-.636-1.642-.9-2.918-.811zm-19.123.572a.5.5 0 0 1 .41.223.5.5 0 0 1-.137.693.5.5 0 0 1-.693-.138.5.5 0 0 1 .136-.694.5.5 0 0 1 .284-.084zm17.222 0a.5.5 0 0 1 .27.084.5.5 0 0 1 .139.696.5.5 0 0 1-.696.136.5.5 0 0 1-.136-.693.5.5 0 0 1 .423-.223zM47.994 25c-5.658 0-10.47 3.64-12.252 8.697 1.65 3.09 4.194 6.43 7.303 9.54.405.403.813.794 1.223 1.177a13.969 13.969 0 0 0-1.715-2.484.497.497 0 0 1-.05-.578.491.491 0 0 1 .47-.352c.72 0 1.102-.2 1.734-.53.172-.09.36-.186.568-.288a.498.498 0 0 1 .41-.012c.223.093.438.202.655.314.513.264.997.514 1.635.516h.007c.63 0 1.11-.25 1.62-.514.218-.113.434-.223.658-.316a.494.494 0 0 1 .385 0c.196.082.398.177.605.275.574.273 1.167.555 1.723.555.138 0 .263.055.353.146.02.013.044.02.063.036a.5.5 0 0 1 .048.707c-.69.792-1.27 1.658-1.761 2.57.426-.397.85-.805 1.267-1.223 3.084-3.084 5.637-6.43 7.301-9.547C58.46 28.636 53.65 25 47.994 25zm-10.953 1.54a.5.5 0 0 1 .346.146.5.5 0 0 1 0 .707.5.5 0 0 1-.707 0 .5.5 0 0 1 0-.707.5.5 0 0 1 .361-.147zm21.92.003a.5.5 0 0 1 .348.146.5.5 0 0 1 0 .707.5.5 0 0 1-.707 0 .5.5 0 0 1 0-.707.5.5 0 0 1 .359-.146zm-23.857 2.344a.5.5 0 0 1 .283.086.5.5 0 0 1 .136.693.5.5 0 0 1-.693.137.5.5 0 0 1-.139-.694.5.5 0 0 1 .375-.22.5.5 0 0 1 .038-.002zm25.783.006a.5.5 0 0 1 .41.222.5.5 0 0 1-.139.694.5.5 0 0 1-.693-.14.5.5 0 0 1 .139-.692.5.5 0 0 1 .283-.084zm-26.4 4.521c-3.464 1.316-5.493 3.092-5.493 4.873 0 1.87 2.12 3.595 5.498 4.865.092-.185.177-.367.276-.556a14.054 14.054 0 0 1-.774-4.598c0-1.478.234-2.9.66-4.238-.059-.116-.11-.23-.168-.346zm27.019.002c-.056.112-.116.227-.174.34A13.95 13.95 0 0 1 61.994 38c0 1.595-.27 3.142-.773 4.598.099.189.181.37.273.556a16.727 16.727 0 0 0 2.694-1.271 1.995 1.995 0 0 1-.182-.824 1.996 1.996 0 0 1 2.79-1.836c.117-.307.198-.619.198-.936 0-1.78-2.026-3.555-5.488-4.871zm-28.717 1.057a.5.5 0 0 1 .1.011.5.5 0 0 1 .392.588.5.5 0 0 1-.588.393.5.5 0 0 1-.392-.588.5.5 0 0 1 .453-.402.5.5 0 0 1 .035-.002zm30.41.002a.5.5 0 0 1 .489.402.5.5 0 0 1-.393.588.5.5 0 0 1-.588-.393.5.5 0 0 1 .393-.588.5.5 0 0 1 .1-.01zm-27.85.552c-.224.957-.357 1.95-.357 2.975 0 1.557.276 3.066.791 4.477l.004.007c.16.434.337.86.541 1.274 2.097.613 4.536 1.066 7.174 1.312a58.236 58.236 0 0 1-1.166-1.127c-2.891-2.89-5.293-5.985-6.986-8.918zm25.29 0c-1.703 2.95-4.12 6.047-6.989 8.916-.388.387-.78.762-1.175 1.133 2.64-.246 5.083-.7 7.181-1.312.205-.414.384-.843.543-1.278.002-.006.006-.01.008-.015A13.05 13.05 0 0 0 60.994 38c0-1.024-.13-2.016-.355-2.973zM32.494 37.5a.5.5 0 0 1 .5.5.5.5 0 0 1-.5.5.5.5 0 0 1-.5-.5.5.5 0 0 1 .5-.5zm31 0a.5.5 0 0 1 .5.5.5.5 0 0 1-.5.5.5.5 0 0 1-.5-.5.5.5 0 0 1 .5-.5zm2.512 2.559a1.001 1.001 0 0 0 0 2 1.001 1.001 0 0 0 0-2zm-2.795.464a.5.5 0 0 1 .084.01.5.5 0 0 1 .394.588.5.5 0 0 1-.587.393.5.5 0 0 1-.395-.588.5.5 0 0 1 .504-.403zm-30.418.002a.5.5 0 0 1 .488.403.5.5 0 0 1-.392.588.5.5 0 0 1-.588-.393.5.5 0 0 1 .392-.588.5.5 0 0 1 .1-.01zm17.662.65c-.132.064-.261.13-.392.198-.566.293-1.206.625-2.079.625h-.013c-.878-.003-1.521-.335-2.088-.627-.126-.064-.25-.127-.377-.187l-.336.171c-.458.24-.861.438-1.36.55a14.946 14.946 0 0 1 1.963 3.327c.731.033 1.47.055 2.221.055.745 0 1.477-.02 2.203-.055a14.93 14.93 0 0 1 1.973-3.355c-.48-.127-.934-.331-1.35-.53-.124-.058-.245-.117-.365-.171zm10.54 3.225c-.223.076-.448.151-.679.223a13.997 13.997 0 0 1-3.748 4.443c-.012.013-.022.025-.035.036a10.08 10.08 0 0 0-2.015 2.35c3.097 1.324 5.646 1.537 6.912.27 1.263-1.262 1.083-3.942-.436-7.322zm-25.999.006c-1.108 2.475-1.486 4.561-1.113 6a1.98 1.98 0 0 1 1.123-.347c1.103 0 2 .897 2 2 0 .16-.025.316-.06.466 1.233.024 2.768-.332 4.525-1.076a10.1 10.1 0 0 0-2.018-2.347c-.013-.011-.023-.024-.035-.036a13.991 13.991 0 0 1-3.75-4.447c-.226-.07-.453-.139-.672-.213zm23.955.602c-2.272.588-4.875.995-7.695 1.174-.175.154-.35.31-.526.46a13.95 13.95 0 0 0-.578 2.43 30.503 30.503 0 0 0 3.444 1.963c.594-.98 1.34-1.874 2.226-2.642a.497.497 0 0 1 .074-.07 13.078 13.078 0 0 0 3.055-3.315zm-21.914.004a13.088 13.088 0 0 0 3.055 3.312.45.45 0 0 1 .074.07 11.068 11.068 0 0 1 2.229 2.647 29.733 29.733 0 0 0 3.437-1.953 13.921 13.921 0 0 0-.592-2.46c-.175-.15-.35-.297-.525-.452-2.81-.18-5.41-.58-7.678-1.164zm23.836 1.095a.5.5 0 0 1 .283.086.5.5 0 0 1 .139.694.5.5 0 0 1-.693.136.5.5 0 0 1-.14-.693.5.5 0 0 1 .376-.22.5.5 0 0 1 .035-.003zm-25.764.002a.5.5 0 0 1 .41.223.5.5 0 0 1-.138.693.5.5 0 0 1-.694-.138.5.5 0 0 1 .14-.694.5.5 0 0 1 .282-.084zm11.256.147c.546.453 1.092.885 1.637 1.295a44.267 44.267 0 0 0 1.623-1.291c-.538.017-1.08.027-1.63.027-.552 0-1.092-.014-1.63-.031zm.23 1.49c.055.237.118.47.16.71.132-.093.263-.181.395-.276a41.96 41.96 0 0 1-.554-.434zm2.788.008c-.182.144-.363.276-.545.416.132.094.261.18.392.271.041-.232.1-.458.153-.687zm-12.342.703a.5.5 0 0 1 .346.147.5.5 0 0 1 0 .707.5.5 0 0 1-.707 0 .5.5 0 0 1 0-.707.5.5 0 0 1 .361-.147zm21.906.002a.5.5 0 0 1 .36.148.5.5 0 0 1 0 .707.5.5 0 0 1-.707 0 .5.5 0 0 1 0-.707.5.5 0 0 1 .31-.146.5.5 0 0 1 .037-.002zm-10.959.355c-.362.263-.72.51-1.082.754.053.515.088 1.033.088 1.555V60h2v-8.914c0-.505.032-1.008.082-1.506a38.19 38.19 0 0 1-1.088-.766zm-2.035 1.38a30.42 30.42 0 0 1-3.086 1.728 11.058 11.058 0 0 1 1.11 4.482c.006.032.017.062.017.096V60h2v-8.877c0-.312-.02-.62-.04-.93zm4.08.013c-.019.291-.039.585-.039.879V60h2v-3.5c0-.034.014-.064.02-.096.05-1.57.43-3.09 1.101-4.472a29.717 29.717 0 0 1-3.082-1.725zm-10.642.178a.5.5 0 0 1 .267.084.5.5 0 0 1 .139.695.5.5 0 0 1-.693.137.5.5 0 0 1-.14-.694.5.5 0 0 1 .427-.222zm17.218.006a.5.5 0 0 1 .41.222.5.5 0 0 1-.138.694.5.5 0 0 1-.694-.137.5.5 0 0 1 .14-.695.5.5 0 0 1 .282-.084zm-21.603.668a1.001 1.001 0 0 0 0 2 1.001 1.001 0 0 0 0-2zM42.994 61a1.001 1.001 0 0 0 0 2h10a1.001 1.001 0 0 0 0-2h-10zm1 3v2h2v-2h-2zm3 0v2h2v-2h-2zm3 0v2h2v-2h-2zm-5.574 3.143L46.295 70h3.398l1.875-2.857H44.42zM46.95 71l1.043 1.59L49.037 71h-2.086z"></path></g><!----></svg>